<?xml version="1.0" encoding="utf-8"?><svg xml:space="preserve" viewBox="0 0 100 100" y="0" x="0" xmlns="http://www.w3.org/2000/svg" id="圖層_1" version="1.1" width="139px" height="139px" xmlns:xlink="http://www.w3.org/1999/xlink" style="width:100%;height:100%;background-size:initial;background-repeat-y:initial;background-repeat-x:initial;background-position-y:initial;background-position-x:initial;background-origin:initial;background-image:initial;background-color:rgb(241, 242, 243);background-clip:initial;background-attachment:initial;animation-play-state:paused" ><g class="ldl-scale" style="transform-origin:50% 50%;transform:rotate(0deg) scale(0.8, 0.8);animation-play-state:paused" ><path fill="#abbd80" d="M64.3 51.4c-1.1-2.8-3.4-5-6.3-5.9-1.9-1.1-2.6-3.1-2.9-5.4-.1-.7-.1-1.5-.1-2.2V7.5H45v30.3c0 .8 0 1.5-.1 2.3-.3 2.2-1 4.3-2.9 5.4-2.9.9-5.2 3.1-6.3 5.9-.4 1-.7 2.2-.7 3.6v35.3c0 2.6 2.1 4.7 4.7 4.7h20.6c2.6 0 4.7-2.1 4.7-4.7V55c0-1.4-.3-2.6-.7-3.6z" style="fill:rgb(49, 24, 71);animation-play-state:paused" ></path>
<path fill="#839a86" d="M58.6 92.5H41.4c-2.2 0-3.9-1.8-3.9-3.9V65h25v23.6c0 2.1-1.8 3.9-3.9 3.9z" style="fill:rgb(160, 26, 125);animation-play-state:paused" ></path>
<path fill="#67503b" d="M54.7 5h-9.5c-.7 0-1.3.6-1.3 1.3v11.5c0 .7.6 1.3 1.3 1.3h9.5c.7 0 1.3-.6 1.3-1.3V6.3c.1-.7-.5-1.3-1.3-1.3z" style="fill:rgb(236, 64, 103);animation-play-state:paused" ></path>
<path fill="#e0e0e0" d="M65 84.2H45.5c-1.6 0-3-1.3-3-3V61.3c0-1.6 1.3-3 3-3H65v25.9z" style="fill:rgb(236, 64, 103);animation-play-state:paused" ></path>
<path d="M37.8 57.2v2.5" stroke-linecap="round" stroke-miterlimit="10" stroke-width="2" stroke="#fff" fill="#abbd80" style="stroke:rgb(160, 26, 125);fill:rgb(49, 24, 71);animation-play-state:paused" ></path>
<path stroke-linecap="round" stroke-miterlimit="10" stroke-width="2" stroke="#fff" fill="#abbd80" d="M44.2 48.3c-2.7.9-4.8 2.9-5.9 5.5" style="stroke:rgb(160, 26, 125);fill:rgb(49, 24, 71);animation-play-state:paused" ></path>
<path opacity=".2" d="M58 45.5c-1.9-1.1-2.6-3.1-2.9-5.4-.1-.7-.1-1.5-.1-2.2V19.1c.6-.1 1.1-.6 1.1-1.3V6.3c0-.7-.6-1.3-1.3-1.3H50v90h10.3c2.6 0 4.7-2.1 4.7-4.7V55c0-1.4-.3-2.6-.7-3.6-1.1-2.8-3.4-5-6.3-5.9z" style="fill:rgb(49, 24, 71);animation-play-state:paused" ></path>
<metadata xmlns:d="https://loading.io/stock/" style="animation-play-state:paused" ><d:name style="animation-play-state:paused" >wine</d:name>
<d:tags style="animation-play-state:paused" >wine,bottle,drink,wine tasting,cup,decant,alcohol,liqueur</d:tags>
<d:license style="animation-play-state:paused" >by</d:license>
<d:slug style="animation-play-state:paused" >m0wa8j</d:slug></metadata></g><!-- generated by https://loading.io/ --></svg>