<svg xmlns="http://www.w3.org/2000/svg" viewBox="0 0 1440 320">
    <defs>
        <linearGradient id="wine" x1="0%" y1="0%" x2="0%" y2="100%">
        <stop offset="0%" style="stop-color:rgb(248, 237, 245);stop-opacity:1" />
        <stop offset="60%" style="stop-color:rgb(196, 54, 158);stop-opacity:1" />
        <stop offset="100%" style="stop-color:rgb(50, 25, 72);stop-opacity:1" />
        </linearGradient>
    </defs>
  <path fill="url(#wine)" fill-opacity="1" d="M0,128L48,149.3C96,171,192,213,288,208C384,203,480,149,576,138.7C672,128,768,160,864,197.3C960,235,1056,277,1152,272C1248,267,1344,213,1392,186.7L1440,160L1440,320L1392,320C1344,320,1248,320,1152,320C1056,320,960,320,864,320C768,320,672,320,576,320C480,320,384,320,288,320C192,320,96,320,48,320L0,320Z"></path>
</svg>
